<svg width="91" height="104" viewBox="0 0 91 104" fill="none" xmlns="http://www.w3.org/2000/svg">
<g filter="url(#filter0_d_1_2281)">
<circle cx="38.25" cy="44" r="22" fill="#FCAE39"/>
<circle cx="38.25" cy="44" r="20.5" stroke="#422A47" stroke-width="3"/>
</g>
<path d="M39.6458 43.5896C40.6503 41.3554 38.3735 35.0424 33.482 33.7792C30.2738 32.9513 27.8174 37.1305 28.7884 40.1196C29.7594 43.1056 38.6383 45.8237 39.6458 43.5896Z" fill="#422A47"/>
<path d="M43.8676 47.7229C41.399 38.9292 28.9283 43.2789 27.2299 49.0622C26.335 51.8839 29.2327 54.112 31.6191 54.742C35.363 55.8196 46.3362 56.5166 43.8676 47.7229Z" fill="#35393D"/>
<path d="M48.2475 38.729C47.5079 38.5859 46.8352 38.5129 46.2203 38.4916C46.4334 37.8767 46.8717 37.3197 47.4165 37.0031C47.9036 36.717 48.5336 36.7018 49.0602 36.5222C49.1181 36.5891 49.182 36.65 49.2611 36.6926C49.3646 36.7718 49.4833 36.8235 49.6142 36.8418C49.7877 36.8722 49.9551 36.857 50.1225 36.7992C50.2138 36.7657 50.3112 36.7109 50.3934 36.6561C50.5365 36.5618 50.6887 36.3822 50.7587 36.2269C50.78 36.1813 50.7952 36.1356 50.8135 36.09V36.0991C50.8135 36.0991 50.8135 36.0808 50.8196 36.0717C50.8257 36.0504 50.8348 36.0321 50.8409 36.0108C50.8987 35.8556 50.9474 35.6882 50.9109 35.5208C50.8926 35.3381 50.8317 35.1707 50.7283 35.0216C50.6522 34.9059 50.5578 34.8146 50.436 34.7507C50.3265 34.6654 50.1986 34.6106 50.0556 34.5893C49.8699 34.5559 49.6903 34.5711 49.5138 34.635C49.4285 34.6746 49.3463 34.7172 49.2642 34.7628C49.112 34.8694 48.9963 35.0033 48.9141 35.1707C48.8928 35.2133 48.8776 35.259 48.8624 35.3046C47.9857 35.2346 46.9417 35.7764 46.3421 36.2817C45.6359 36.8783 45.2432 37.6515 45.2311 38.5007C44.9175 38.522 44.6223 38.5616 44.3422 38.6133C44.3179 37.9893 44.3301 37.344 44.5431 36.7718C44.7471 36.2239 45.1489 35.7764 45.435 35.2681C45.5111 35.2833 45.5872 35.2894 45.6663 35.2833L45.7759 35.2772C45.8246 35.2772 45.8733 35.2772 45.922 35.2681H45.9433C45.9616 35.2681 45.9768 35.259 45.992 35.2559C46.0164 35.2529 46.0377 35.2468 46.062 35.2438C46.0955 35.2346 46.129 35.2285 46.1594 35.2164C46.1716 35.2133 46.1868 35.2103 46.199 35.2042C46.7104 35.0398 46.9143 34.4128 46.6799 33.9623C46.5673 33.7462 46.3999 33.6031 46.1686 33.5301C46.0559 33.4814 45.9403 33.4661 45.8155 33.4814C45.8003 33.4814 45.785 33.4905 45.7698 33.4905C45.505 33.4905 45.2463 33.5909 45.0667 33.7918C44.9358 33.8588 44.8232 33.9623 44.7653 34.0993C44.7166 34.2119 44.6953 34.3336 44.7014 34.4584C44.7075 34.5802 44.7745 34.7385 44.8658 34.845C44.8719 34.8572 44.881 34.8694 44.8871 34.8815C43.5721 35.6456 43.0182 37.3958 43.4595 38.8446C40.8083 39.7669 40.1722 42.2446 40.507 44.0222L43.4413 49.5316C43.4413 49.5316 45.8642 50.2408 48.8715 49.3338C51.8788 48.4237 54.9349 40.0104 48.2475 38.7229V38.729Z" fill="#35393D"/>
<path d="M35.8011 55.3428C34.7023 55.3063 33.6552 55.1785 32.7847 55.011C33.0982 54.4175 33.3813 53.8148 33.4969 53.133C33.6826 52.0555 33.5882 50.9323 33.2686 49.8882C32.6994 48.0193 31.4271 46.537 29.8686 45.432C30.447 44.9633 31.0923 44.5402 31.7771 44.1719C33.8135 45.3133 35.3415 47.2918 35.9655 49.6204C36.3855 51.1758 36.5438 53.6109 35.8011 55.3459V55.3428Z" fill="#FECD34"/>
<path d="M31.4639 54.6913C30.8947 54.5269 30.3042 54.2743 29.7472 53.9456C29.8294 53.5346 29.9846 53.1389 30.079 52.6945C30.2464 51.9153 30.2403 51.0904 30.0029 50.3203C29.662 49.2032 28.8675 48.2475 27.9848 47.4621C28.2648 47.033 28.5997 46.622 28.9801 46.2324C30.4412 46.9082 31.4852 48.217 31.957 49.8485C32.3497 51.2122 32.4593 53.4585 31.4639 54.6883V54.6913Z" fill="#FECD34"/>
<path d="M40.3576 54.8414C39.3835 55.1428 38.309 55.2919 37.2376 55.3376C37.4202 54.3118 37.7703 53.3225 37.7064 52.2298C37.6272 50.9148 37.2559 49.6395 36.7475 48.4311C35.874 46.3825 34.4829 44.9063 32.7753 43.6857C33.7006 43.29 34.6777 43.0008 35.6578 42.8456C37.268 44.0022 38.5404 45.6916 39.3561 47.4814C40.0836 49.0794 41.0242 52.525 40.3576 54.8384V54.8414Z" fill="#FECD34"/>
<path d="M41.387 54.4529C43.5664 53.4332 44.9057 51.4121 43.8677 47.7138C43.8616 47.6864 43.8525 47.6591 43.8434 47.6347C43.8434 47.6347 43.8434 47.6286 43.8403 47.6256C43.5633 46.6698 43.1676 45.8723 42.6776 45.2179C41.3778 43.4798 39.4328 42.7432 37.3508 42.7189C37.3447 42.7189 37.3417 42.7189 37.3356 42.7189C38.6262 44.1251 39.8163 45.6471 40.5621 47.4064C41.5848 49.8232 41.6609 51.9661 41.387 54.4529Z" fill="#FECD34"/>
<path d="M41.0216 45.1493C42.8479 43.5178 43.3258 36.8213 39.3688 33.6831C36.7724 31.6255 32.8336 34.4502 32.5079 37.5732C32.1822 40.6962 39.1983 46.7808 41.0216 45.1493Z" fill="white"/>
<path d="M27.9484 50.0365C27.1844 49.8509 24.591 50.2587 24.6884 50.6605C24.664 51.0441 27.2483 52.1764 28.1371 51.6407C28.755 51.2693 28.7063 50.2192 27.9484 50.0365Z" fill="#35393D"/>
<path d="M50.6555 42.5319C50.5855 42.398 50.5155 42.2641 50.4454 42.1301C50.2659 41.8744 50.0376 41.6766 49.7575 41.5396C49.5384 41.4239 49.307 41.3722 49.0666 41.3813C48.8322 41.3509 48.6039 41.3813 48.3787 41.4696C48.1565 41.5427 47.9647 41.6614 47.8064 41.8318C47.6207 41.9718 47.4807 42.1514 47.3864 42.3706C47.3711 42.4041 47.359 42.4406 47.3438 42.4741C47.2433 42.678 47.1976 42.8941 47.2068 43.1194C47.1794 43.2777 47.1916 43.4299 47.2463 43.579C47.2768 43.8073 47.362 44.0143 47.5051 44.203C47.6055 44.3156 47.706 44.4252 47.8064 44.5378C47.9343 44.62 48.0621 44.7052 48.1899 44.7874C48.4091 44.9031 48.6374 44.9548 48.8779 44.9457C49.1122 44.9761 49.3375 44.9457 49.5627 44.8574C49.6327 44.8239 49.7027 44.7874 49.7727 44.7478C49.8519 44.7235 49.9189 44.687 49.9797 44.6383C50.0924 44.5378 50.205 44.4374 50.3146 44.3339C50.3176 44.3308 50.3206 44.3278 50.3237 44.3217C50.3693 44.2578 50.412 44.1939 50.4515 44.1269C50.5033 44.063 50.5459 43.996 50.5824 43.926C50.6311 43.7738 50.6798 43.6247 50.7285 43.4725C50.7285 43.4664 50.7316 43.4603 50.7316 43.4542C50.7864 43.1376 50.762 42.8302 50.6524 42.5289L50.6555 42.5319Z" fill="white"/>
<path d="M49.6083 42.0754C48.333 41.8441 47.9707 43.8256 49.2492 44.0569C50.5245 44.2883 50.8868 42.3067 49.6083 42.0754Z" fill="#35393D"/>
<defs>
<filter id="filter0_d_1_2281" x="-13.75" y="0" width="104" height="104" filterUnits="userSpaceOnUse" color-interpolation-filters="sRGB">
<feFlood flood-opacity="0" result="BackgroundImageFix"/>
<feColorMatrix in="SourceAlpha" type="matrix" values="0 0 0 0 0 0 0 0 0 0 0 0 0 0 0 0 0 0 127 0" result="hardAlpha"/>
<feOffset dy="8"/>
<feGaussianBlur stdDeviation="15"/>
<feColorMatrix type="matrix" values="0 0 0 0 0.0705882 0 0 0 0 0.0980392 0 0 0 0 0.356863 0 0 0 0.1 0"/>
<feBlend mode="normal" in2="BackgroundImageFix" result="effect1_dropShadow_1_2281"/>
<feBlend mode="normal" in="SourceGraphic" in2="effect1_dropShadow_1_2281" result="shape"/>
</filter>
</defs>
</svg>
