<svg width="113" height="105" viewBox="0 0 113 105" fill="none" xmlns="http://www.w3.org/2000/svg">
<path d="M96.5452 16.096C98.8143 20.5893 100.415 25.3898 101.296 30.3454C102.232 35.4502 102.488 40.6563 102.058 45.8281C101.601 51.0139 100.497 56.1221 98.769 61.033C97.1135 65.7692 94.8459 70.2687 92.0238 74.4174C89.1164 78.6883 85.6136 82.522 81.6213 85.8024C77.5054 89.1172 72.9135 91.7933 68 93.7406C63.066 95.6915 57.8899 96.9643 52.6134 97.5241C47.2633 98.1133 41.8595 98.0134 36.5347 97.2268C31.1988 96.4724 25.9846 95.0233 21.0248 92.9165C15.7791 90.6737 10.7665 87.821 6.38175 84.1831C5.19438 83.2041 4.04844 82.1914 2.91766 81.1231C2.4527 80.6768 1.88377 79.8493 1.91329 79.1522C1.93659 78.8493 2.05874 78.5625 2.26095 78.3358C2.46315 78.1091 2.73422 77.955 3.03254 77.8972C4.8534 77.4737 6.87833 78.5376 8.15228 79.7566C8.57985 80.1653 9.01455 80.5663 9.45637 80.9596L9.79636 81.2633C10.2651 81.672 9.05306 80.6241 9.45541 80.969L10.1533 81.5561C11.064 82.3053 11.998 83.022 12.9554 83.7063C13.4343 84.0463 13.917 84.3804 14.4073 84.7025C14.6448 84.8597 14.8824 85.0168 15.1238 85.168L15.314 85.2919L15.3617 85.322L14.7153 84.9143L15.1 85.1529C16.0941 85.767 17.1159 86.3468 18.1655 86.8926C19.2067 87.4385 20.2771 87.9463 21.3374 88.4276L20.5853 88.0947L20.6916 88.1404L20.8979 88.231L21.2653 88.3887L22.1079 88.737C22.6528 88.9571 23.2022 89.1648 23.7516 89.3726C24.8577 89.7784 25.9755 90.1515 27.1051 90.4921C27.3757 90.5734 27.6495 90.655 27.9239 90.7304L28.309 90.8391C28.7866 90.9731 27.6213 90.6522 27.6918 90.6752L27.9694 90.7508C28.5373 90.9003 29.1091 91.0438 29.6852 91.1751C32.2839 91.7791 34.92 92.2084 37.576 92.4602L36.7165 92.3731C40.9314 92.7676 45.1762 92.7161 49.3802 92.2194L48.6328 92.3083C52.9175 91.7993 57.1301 90.8035 61.189 89.3402C62.3431 88.9187 63.4853 88.458 64.6156 87.9581L64.0254 88.215C69.0865 85.9745 73.7431 82.9148 77.8077 79.159C78.9314 78.1199 80.0054 77.0303 81.0295 75.8903L80.6402 76.3228C85.4528 70.9246 89.1804 64.6505 91.6197 57.8432C92.3066 55.9392 92.8977 54.0019 93.3906 52.0387L93.2508 52.6043C94.7921 46.449 95.3306 40.0855 94.8455 33.7587C94.7035 31.9724 94.4758 30.1964 94.1627 28.4308L94.2747 29.0757C93.5923 25.2138 92.4749 21.4415 90.9437 17.8308C90.5034 16.7978 90.0278 15.7791 89.517 14.7748C89.3951 14.4955 89.3699 14.1836 89.4452 13.8883C89.5205 13.5931 89.692 13.3313 89.9327 13.1444C90.498 12.7265 91.4913 12.7449 92.1276 12.876C93.1373 13.0703 94.0894 13.4919 94.9119 14.1088L95.6401 14.7402C96.0308 15.1153 96.3349 15.571 96.5315 16.0756L96.5452 16.096Z" fill="#FCAE39"/>
<path d="M103.437 31.1266L91.6256 15.1027L88.2834 10.5599L95.4559 12.3962C94.2287 18.5378 92.9983 24.6791 91.7648 30.82C91.4173 32.5588 91.0687 34.2985 90.7188 36.0392C90.6026 36.6229 89.5751 36.8165 89.1534 36.8497C88.1931 36.8901 87.236 36.7129 86.3538 36.3313C85.5 35.9691 84.5729 35.5171 83.9753 34.7849C83.5544 34.2797 83.2604 33.8032 83.3997 33.1172C84.6265 26.9798 85.8568 20.8396 87.0905 14.6966L88.1365 9.47746L88.4511 9.0627C88.7089 8.8653 89.0197 8.74905 89.3439 8.72876C90.0629 8.61403 90.7983 8.65835 91.4984 8.85861C92.1742 9.04407 92.827 9.30475 93.4447 9.63575C94.1901 10.0398 94.8291 10.6149 95.309 11.3138L107.13 27.3386L110.473 31.8782C110.631 32.1059 110.701 32.3834 110.67 32.6589C110.638 32.9344 110.508 33.189 110.302 33.3751C109.798 33.8087 108.798 33.8277 108.201 33.7512C107.183 33.6358 106.2 33.314 105.311 32.8055L104.506 32.2772C104.079 31.968 103.718 31.5771 103.444 31.1272L103.437 31.1266Z" fill="#FCAE39"/>
</svg>
