<svg width="114" height="150" viewBox="0 0 114 150" fill="none" xmlns="http://www.w3.org/2000/svg">
<path d="M109.164 9.22669C101.375 8.40931 93.5171 8.72634 85.8085 10.1691C83.6202 10.5777 81.4463 11.0718 79.2868 11.6516L79.9526 11.4715C75.326 12.7169 70.7967 14.3409 66.4052 16.329C64.1809 17.3378 61.995 18.4372 59.8475 19.6273C58.8037 20.207 57.7707 20.8072 56.7485 21.4278C56.2519 21.7304 55.7588 22.0407 55.2657 22.351C54.8806 22.5923 55.9855 21.8913 55.406 22.2629L55.0786 22.4736L54.2687 23.0099C50.2247 25.7004 46.3879 28.7286 42.7945 32.0659C42.3662 32.449 41.9379 32.8704 41.5167 33.2803C40.9913 33.7821 42.0998 32.7056 41.7399 33.0619L41.38 33.4067L40.6854 34.1001C39.8143 34.9888 38.9589 35.8941 38.1191 36.8161C36.4875 38.6165 34.9278 40.486 33.4402 42.4244L33.1414 42.8074C32.8067 43.248 33.8612 41.8306 33.4077 42.4512L32.9363 43.0909C32.5475 43.6247 32.1636 44.1636 31.7845 44.7075C31.0503 45.7572 30.3388 46.826 29.6502 47.9139C28.9615 49.0019 28.3005 50.0949 27.667 51.1931C27.4655 51.5417 26.8788 52.6181 27.721 51.0896L27.2675 51.9094C26.9544 52.484 26.6448 53.0587 26.3425 53.6486C25.1428 55.9854 24.0318 58.3745 23.0096 60.816C22.9557 60.9424 22.9053 61.0727 22.8513 61.1991C23.456 59.7549 23.1896 60.3678 23.0528 60.7088L22.6929 61.5783C22.441 62.2296 22.1951 62.8808 21.9551 63.532C21.5112 64.7426 21.0925 65.9621 20.699 67.1905C20.3055 68.4189 19.9336 69.6562 19.5832 70.9025C19.4861 71.2396 19.3961 71.5767 19.3061 71.9138C19.2161 72.2509 19.1009 72.7221 19.4393 71.3967C19.4069 71.5346 19.3709 71.6687 19.3349 71.8027C19.1585 72.4808 18.9749 73.1627 18.831 73.8407C18.2287 76.3946 17.7236 78.974 17.3157 81.5789C17.1142 82.8559 16.9378 84.143 16.7867 85.4404C16.7867 85.5668 16.6895 86.2832 16.7867 85.5553C16.8838 84.8275 16.7867 85.5553 16.7867 85.6702C16.7579 85.9499 16.7291 86.2295 16.7039 86.5092C16.6355 87.2064 16.5707 87.9074 16.5167 88.6085C16.3104 91.2364 16.2048 93.8694 16.2 96.5076C16.2 99.1431 16.2936 101.775 16.4807 104.403C16.5239 104.981 16.4807 104.219 16.4807 104.154C16.5095 104.326 16.5095 104.506 16.5239 104.679C16.5491 104.997 16.5779 105.311 16.6067 105.625C16.6763 106.322 16.7495 107.019 16.8262 107.716C16.9774 109.006 17.1514 110.292 17.3481 111.574C18.1404 116.775 19.3481 121.895 20.9581 126.878C21.354 128.104 21.7823 129.322 22.2286 130.529L21.9767 129.851C22.6317 131.613 23.3396 133.353 24.1002 135.072C24.9352 136.961 24.003 139.47 22.9161 141.048C22.3798 141.814 21.6959 142.784 20.8033 143.109C20.2563 143.312 19.4285 143.442 19.1153 142.726C13.6445 130.227 10.7378 116.631 10.5888 102.844C10.3866 88.8526 12.8564 74.9636 17.8484 62.0189C22.8873 48.9942 30.3304 37.0766 40.0123 27.423C49.1848 18.2403 59.9668 11.0704 71.7428 6.32294C83.1847 1.74897 95.4975 -0.522691 107.735 0.101729C109.196 0.173238 110.655 0.289428 112.111 0.450322C113.987 0.649523 113.504 3.42686 113.044 4.71783C112.664 5.89612 112.059 6.97756 111.266 7.89356C110.762 8.4337 109.959 9.30713 109.171 9.22286L109.164 9.22669Z" fill="#FCAE39"/>
<path d="M32.5918 127.204L27.4658 149.598L27.0827 149.897L26.4659 150C25.6608 149.977 24.869 149.788 24.1405 149.445C22.4944 148.798 21.0083 147.803 19.7845 146.527L4.92374 130.8L0.709541 126.346C0.399223 126.021 -0.221413 125.152 0.0850716 124.623C0.39156 124.095 1.44509 124.217 1.8895 124.305C4.13865 124.825 6.18033 126.007 7.75108 127.698L22.6119 143.425L26.8261 147.878L19.1639 144.815C20.8726 137.35 22.58 129.886 24.2861 122.421C24.4201 121.847 25.8491 122.061 26.0905 122.103C27.2153 122.34 28.2901 122.772 29.2665 123.379C30.2786 123.92 31.1866 124.637 31.9482 125.496C32.3658 126.025 32.7144 126.511 32.5689 127.216L32.5918 127.204Z" fill="#FCAE39"/>
</svg>
