<svg width="94" height="109" viewBox="0 0 94 109" fill="none" xmlns="http://www.w3.org/2000/svg">
<g filter="url(#filter0_d_1_5924)">
<path d="M40 70.5C53.2548 70.5 64 59.7548 64 46.5C64 33.2452 53.2548 22.5 40 22.5C26.7452 22.5 16 33.2452 16 46.5C16 59.7548 26.7452 70.5 40 70.5Z" fill="#FECD34"/>
<path d="M63 46.5C63 59.2025 52.7025 69.5 40 69.5C27.2975 69.5 17 59.2025 17 46.5C17 33.7975 27.2975 23.5 40 23.5C52.7025 23.5 63 33.7975 63 46.5Z" stroke="white" stroke-width="2"/>
</g>
<path fill-rule="evenodd" clip-rule="evenodd" d="M53.25 45.6429V46.0326C53.25 46.471 53.25 46.9229 53.2373 47.3775C53.2373 47.4552 53.2304 47.5359 53.2239 47.6131L53.2239 47.6131L53.2239 47.6133L53.2239 47.6134C53.221 47.6469 53.2182 47.6798 53.2161 47.7115C53.202 47.8788 53.1815 48.0454 53.1603 48.2057L53.1533 48.2473C53.1257 48.4909 53.0841 48.7479 53.0283 49.0472C52.8853 49.8041 52.6757 50.5468 52.4021 51.2668C51.2234 54.3872 48.9275 56.9584 45.9599 58.4814C45.71 58.6064 45.4523 58.732 45.16 58.857C45.0213 58.9179 44.8728 58.9533 44.7216 58.9615H44.687C44.4135 58.9638 44.1486 58.8661 43.9422 58.6866C43.7358 58.5071 43.6022 58.2584 43.5666 57.9872C43.537 57.7584 43.5778 57.5261 43.6835 57.3211C43.7892 57.116 43.9547 56.948 44.1582 56.8393C44.2076 56.8136 44.2515 56.7946 44.2947 56.7759L44.3114 56.7687C44.3183 56.765 44.3235 56.7633 44.3288 56.7615C44.3339 56.7598 44.3391 56.758 44.346 56.7546C45.8521 56.0886 47.1929 55.0987 48.2728 53.8553C49.3526 52.612 50.1449 51.1458 50.5933 49.5612C50.7182 49.1131 50.8158 48.6578 50.8856 48.1979C50.9895 47.5401 51.0314 46.874 51.0106 46.2084C51.0032 45.8032 50.9706 45.3988 50.9132 44.9976C50.6558 43.0903 49.9102 41.2817 48.7487 39.7471C47.5871 38.2125 46.049 37.0039 44.2832 36.2383C44.2799 36.2348 44.2747 36.233 44.2695 36.2312C44.2643 36.2295 44.2591 36.2277 44.2556 36.2242C44.2457 36.219 44.2346 36.2139 44.2227 36.2085C44.2024 36.1991 44.18 36.1889 44.1582 36.1755C43.9739 36.0846 43.8188 35.9437 43.7106 35.769C43.6024 35.5942 43.5454 35.3926 43.5461 35.1871C43.5413 34.9423 43.617 34.7028 43.7614 34.5051C43.9359 34.2686 44.1953 34.1089 44.4851 34.0596C44.4881 34.0596 44.4931 34.058 44.4981 34.0562L44.4982 34.0562C44.5035 34.0544 44.509 34.0526 44.5126 34.0526C44.5161 34.0526 44.5197 34.0508 44.5232 34.049C44.5267 34.0473 44.5302 34.0455 44.5338 34.0455L44.5549 34.0385H44.7844L44.8056 34.0455C44.8091 34.0455 44.8126 34.0473 44.8162 34.049L44.8162 34.049C44.8197 34.0508 44.8232 34.0526 44.8268 34.0526C44.9366 34.0732 45.0439 34.1059 45.1466 34.15C46.0927 34.5591 46.989 35.075 47.8181 35.6877C48.6505 36.3002 49.4087 37.0076 50.0773 37.7958C50.7461 38.5856 51.3226 39.4492 51.7956 40.3698C52.3279 41.4064 52.723 42.5078 52.9711 43.6463C53.0551 44.0231 53.1202 44.4039 53.166 44.7872C53.184 44.9113 53.1959 45.0355 53.2077 45.1578C53.2145 45.2275 53.2211 45.2966 53.2288 45.3647C53.2298 45.4229 53.2345 45.4809 53.2429 45.5384C53.2485 45.5729 53.2509 45.6079 53.25 45.6429ZM47.5175 41.3894C48.5169 42.9034 49.0493 44.6778 49.0484 46.492C49.0476 48.3003 48.5168 50.0687 47.5215 51.5785C46.5262 53.0882 45.1101 54.2731 43.4484 54.9865C43.3085 55.05 43.1567 55.0832 43.003 55.0839C42.7444 55.082 42.4943 54.9914 42.2945 54.8272C42.0947 54.6631 41.9573 54.4354 41.9051 54.1821C41.853 53.9289 41.8893 53.6654 42.0081 53.4357C42.1268 53.206 42.3207 53.024 42.5575 52.9201C43.817 52.3783 44.8898 51.4787 45.6429 50.3329C46.396 49.1871 46.7962 47.8455 46.7939 46.4744C46.7917 45.1033 46.387 43.763 45.6302 42.6197C44.8734 41.4764 43.7976 40.5804 42.5363 40.0427C42.4008 39.9858 42.278 39.9023 42.1753 39.7972C42.0726 39.6921 41.992 39.5674 41.9383 39.4306C41.8837 39.293 41.8569 39.1459 41.8593 38.9978C41.8617 38.8498 41.8934 38.7037 41.9524 38.5679C42.0369 38.3648 42.1799 38.1915 42.3632 38.07C42.5465 37.9486 42.7619 37.8845 42.9818 37.8859C43.135 37.8842 43.2868 37.915 43.4272 37.9763C45.0957 38.6885 46.5181 39.8754 47.5175 41.3894ZM44.0528 49.0661C44.5226 48.2742 44.7724 47.3712 44.7765 46.4504C44.7765 46.3483 44.763 46.18 44.7498 46.0162L44.7498 46.0162L44.7489 46.0049C44.713 45.6477 44.6385 45.2955 44.5265 44.9544C44.3076 44.2908 43.9499 43.6814 43.4772 43.1668C43.0045 42.6521 42.4277 42.2439 41.7852 41.9694C41.6378 41.9066 41.4794 41.8735 41.3192 41.872C41.2306 41.8743 41.1423 41.8835 41.0552 41.8995C40.8177 41.955 40.6051 42.0869 40.4501 42.2751C40.292 42.4599 40.2012 42.6929 40.1924 42.9359C40.1819 43.0992 40.2081 43.2627 40.2692 43.4145C40.3303 43.5663 40.4247 43.7024 40.5454 43.8128C40.6534 43.9126 40.7782 43.9927 40.9139 44.0493C41.3888 44.2598 41.7925 44.6033 42.0763 45.0383C42.3602 45.4733 42.512 45.9811 42.5135 46.5005C42.515 47.0199 42.3661 47.5286 42.0847 47.9652C41.8034 48.4018 41.4017 48.7476 40.9281 48.9609L40.9069 48.9679C40.8931 48.975 40.8774 48.9819 40.8617 48.9888C40.846 48.9957 40.8303 49.0026 40.8165 49.0096C40.6468 49.0971 40.5025 49.2271 40.3977 49.3867C40.293 49.5464 40.2313 49.7305 40.2186 49.921C40.2048 50.1106 40.239 50.3005 40.3181 50.4733C40.3972 50.646 40.5186 50.796 40.6711 50.9094C40.8596 51.0574 41.0922 51.1382 41.3319 51.1389C41.4849 51.1385 41.6363 51.1078 41.7774 51.0485C41.9094 50.9928 42.0414 50.9299 42.16 50.8678C42.9408 50.4474 43.5945 49.8252 44.0528 49.0661ZM38.0767 43.9316V38.1015C38.0752 37.9046 38.0156 37.7125 37.9055 37.5492C37.7954 37.386 37.6395 37.2588 37.4575 37.1837C37.3386 37.1338 37.2109 37.1079 37.0819 37.1075C36.9507 37.1069 36.8208 37.1324 36.6995 37.1826C36.5783 37.2328 36.4683 37.3066 36.3759 37.3997L31.3387 42.4645H27.8983V42.4709H27.4884C27.2256 42.4722 26.974 42.5776 26.7887 42.7641C26.6034 42.9505 26.4996 43.2028 26.5 43.4656V49.5308C26.5 49.793 26.6041 50.0444 26.7895 50.2297C26.9749 50.4151 27.2263 50.5192 27.4884 50.5192H27.8983V50.5206H31.321L36.3788 55.5854C36.4711 55.6786 36.5812 55.7524 36.7024 55.8026C36.8236 55.8528 36.9536 55.8783 37.0848 55.8777C37.216 55.8773 37.346 55.8514 37.4674 55.8015C37.6494 55.7272 37.805 55.6 37.9141 55.4364C38.0232 55.2728 38.0808 55.0803 38.0795 54.8837V49.0522L38.0767 43.9316Z" fill="white"/>
<defs>
<filter id="filter0_d_1_5924" x="-14" y="0.5" width="108" height="108" filterUnits="userSpaceOnUse" color-interpolation-filters="sRGB">
<feFlood flood-opacity="0" result="BackgroundImageFix"/>
<feColorMatrix in="SourceAlpha" type="matrix" values="0 0 0 0 0 0 0 0 0 0 0 0 0 0 0 0 0 0 127 0" result="hardAlpha"/>
<feOffset dy="8"/>
<feGaussianBlur stdDeviation="15"/>
<feColorMatrix type="matrix" values="0 0 0 0 0.0705882 0 0 0 0 0.0980392 0 0 0 0 0.356863 0 0 0 0.1 0"/>
<feBlend mode="normal" in2="BackgroundImageFix" result="effect1_dropShadow_1_5924"/>
<feBlend mode="normal" in="SourceGraphic" in2="effect1_dropShadow_1_5924" result="shape"/>
</filter>
</defs>
</svg>
