<svg width="29" height="24" viewBox="0 0 29 24" fill="none" xmlns="http://www.w3.org/2000/svg">
<path d="M15.6458 11.5896C16.6503 9.35536 14.3735 3.04241 9.48203 1.7792C6.27381 0.951276 3.81741 5.13049 4.7884 8.11956C5.75939 11.1056 14.6383 13.8237 15.6458 11.5896Z" fill="#422A47"/>
<path d="M19.8676 15.7229C17.399 6.9292 4.92834 11.2789 3.22986 17.0622C2.33497 19.8839 5.23272 22.112 7.61911 22.742C11.363 23.8196 22.3362 24.5166 19.8676 15.7229Z" fill="#35393D"/>
<path d="M24.2475 6.72898C23.5079 6.58592 22.8352 6.51286 22.2203 6.49156C22.4334 5.8767 22.8717 5.31967 23.4165 5.00311C23.9036 4.71699 24.5336 4.70177 25.0602 4.52218C25.1181 4.58915 25.182 4.65002 25.2611 4.69264C25.3646 4.77178 25.4833 4.82352 25.6142 4.84179C25.7877 4.87223 25.9551 4.85701 26.1225 4.79917C26.2138 4.76569 26.3112 4.7109 26.3934 4.65611C26.5365 4.56175 26.6887 4.38216 26.7587 4.22693C26.78 4.18127 26.7952 4.13561 26.8135 4.08995V4.09909C26.8135 4.09909 26.8135 4.08082 26.8196 4.07169C26.8257 4.05038 26.8348 4.03212 26.8409 4.01081C26.8987 3.85558 26.9474 3.68816 26.9109 3.52075C26.8926 3.33812 26.8317 3.17071 26.7283 3.02156C26.6522 2.90589 26.5578 2.81458 26.436 2.75066C26.3265 2.66543 26.1986 2.61064 26.0556 2.58933C25.8699 2.55585 25.6903 2.57107 25.5138 2.63499C25.4285 2.67456 25.3463 2.71718 25.2642 2.76283C25.112 2.86937 24.9963 3.0033 24.9141 3.17071C24.8928 3.21332 24.8776 3.25898 24.8624 3.30464C23.9857 3.23463 22.9417 3.77644 22.3421 4.28172C21.6359 4.87831 21.2432 5.65145 21.2311 6.50069C20.9175 6.522 20.6223 6.56157 20.3422 6.61331C20.3179 5.98932 20.3301 5.34402 20.5431 4.77178C20.7471 4.22388 21.1489 3.77644 21.435 3.26811C21.5111 3.28333 21.5872 3.28942 21.6663 3.28333L21.7759 3.27724C21.8246 3.27724 21.8733 3.27724 21.922 3.26811H21.9433C21.9616 3.26811 21.9768 3.25898 21.992 3.25594C22.0164 3.25289 22.0377 3.24681 22.062 3.24376C22.0955 3.23463 22.129 3.22854 22.1594 3.21637C22.1716 3.21332 22.1868 3.21028 22.199 3.20419C22.7104 3.03982 22.9143 2.41279 22.6799 1.9623C22.5673 1.74618 22.3999 1.60312 22.1686 1.53007C22.0559 1.48137 21.9403 1.46615 21.8155 1.48137C21.8003 1.48137 21.785 1.4905 21.7698 1.4905C21.505 1.4905 21.2463 1.59095 21.0667 1.79184C20.9358 1.85881 20.8232 1.9623 20.7653 2.09927C20.7166 2.21189 20.6953 2.33365 20.7014 2.45845C20.7075 2.5802 20.7745 2.73848 20.8658 2.84502C20.8719 2.85719 20.881 2.86937 20.8871 2.88154C19.5721 3.64555 19.0182 5.39577 19.4595 6.84464C16.8083 7.76693 16.1722 10.2446 16.507 12.0222L19.4413 17.5316C19.4413 17.5316 21.8642 18.2408 24.8715 17.3338C27.8788 16.4237 30.9349 8.01044 24.2475 6.72289V6.72898Z" fill="#35393D"/>
<path d="M11.8011 23.3428C10.7023 23.3063 9.6552 23.1785 8.78465 23.011C9.09817 22.4175 9.38125 21.8148 9.49692 21.133C9.68259 20.0555 9.58823 18.9323 9.26863 17.8882C8.69943 16.0193 7.42709 14.537 5.86864 13.432C6.44697 12.9633 7.09227 12.5402 7.77714 12.1719C9.81348 13.3133 11.3415 15.2918 11.9655 17.6204C12.3855 19.1758 12.5438 21.6109 11.8011 23.3459V23.3428Z" fill="#FECD34"/>
<path d="M7.46393 22.6913C6.89473 22.5269 6.30423 22.2743 5.7472 21.9456C5.82938 21.5346 5.98462 21.1389 6.07898 20.6945C6.24639 19.9153 6.24031 19.0904 6.00288 18.3203C5.66197 17.2032 4.86753 16.2475 3.98481 15.4621C4.26484 15.033 4.59967 14.622 4.98015 14.2324C6.4412 14.9082 7.48524 16.217 7.95704 17.8485C8.3497 19.2122 8.45928 21.4585 7.46393 22.6883V22.6913Z" fill="#FECD34"/>
<path d="M16.3576 22.8414C15.3835 23.1428 14.309 23.2919 13.2376 23.3376C13.4202 22.3118 13.7703 21.3225 13.7064 20.2298C13.6272 18.9148 13.2559 17.6395 12.7475 16.4311C11.874 14.3825 10.4829 12.9063 8.77531 11.6857C9.70065 11.29 10.6777 11.0008 11.6578 10.8456C13.268 12.0022 14.5404 13.6916 15.3561 15.4814C16.0836 17.0794 17.0242 20.525 16.3576 22.8384V22.8414Z" fill="#FECD34"/>
<path d="M17.387 22.4529C19.5664 21.4332 20.9057 19.4121 19.8677 15.7138C19.8616 15.6864 19.8525 15.6591 19.8434 15.6347C19.8434 15.6347 19.8434 15.6286 19.8403 15.6256C19.5633 14.6698 19.1676 13.8723 18.6776 13.2179C17.3778 11.4798 15.4328 10.7432 13.3508 10.7189C13.3447 10.7189 13.3417 10.7189 13.3356 10.7189C14.6262 12.1251 15.8163 13.6471 16.5621 15.4064C17.5848 17.8232 17.6609 19.9661 17.387 22.4529Z" fill="#FECD34"/>
<path d="M17.0216 13.1493C18.8479 11.5178 19.3258 4.82133 15.3688 1.68311C12.7724 -0.374535 8.83361 2.45016 8.50791 5.57316C8.18222 8.69616 15.1983 14.7808 17.0216 13.1493Z" fill="white"/>
<path d="M3.94836 18.0365C3.18436 17.8509 0.590987 18.2587 0.68839 18.6605C0.664039 19.0441 3.24827 20.1764 4.13708 19.6407C4.75498 19.2693 4.70628 18.2192 3.94836 18.0365Z" fill="#35393D"/>
<path d="M26.6555 10.5319C26.5855 10.398 26.5155 10.2641 26.4454 10.1301C26.2659 9.87444 26.0376 9.67659 25.7575 9.53962C25.5384 9.42395 25.307 9.3722 25.0666 9.38134C24.8322 9.3509 24.6039 9.38134 24.3787 9.46961C24.1565 9.54266 23.9647 9.66137 23.8064 9.83183C23.6207 9.97184 23.4807 10.1514 23.3864 10.3706C23.3711 10.4041 23.359 10.4406 23.3438 10.4741C23.2433 10.678 23.1976 10.8941 23.2068 11.1194C23.1794 11.2777 23.1916 11.4299 23.2463 11.579C23.2768 11.8073 23.362 12.0143 23.5051 12.203C23.6055 12.3156 23.706 12.4252 23.8064 12.5378C23.9343 12.62 24.0621 12.7052 24.1899 12.7874C24.4091 12.9031 24.6374 12.9548 24.8779 12.9457C25.1122 12.9761 25.3375 12.9457 25.5627 12.8574C25.6327 12.8239 25.7027 12.7874 25.7727 12.7478C25.8519 12.7235 25.9189 12.687 25.9797 12.6383C26.0924 12.5378 26.205 12.4374 26.3146 12.3339C26.3176 12.3308 26.3206 12.3278 26.3237 12.3217C26.3693 12.2578 26.412 12.1939 26.4515 12.1269C26.5033 12.063 26.5459 11.996 26.5824 11.926C26.6311 11.7738 26.6798 11.6247 26.7285 11.4725C26.7285 11.4664 26.7316 11.4603 26.7316 11.4542C26.7864 11.1376 26.762 10.8302 26.6524 10.5289L26.6555 10.5319Z" fill="white"/>
<path d="M25.6083 10.0754C24.333 9.84405 23.9707 11.8256 25.2492 12.0569C26.5245 12.2883 26.8868 10.3067 25.6083 10.0754Z" fill="#35393D"/>
</svg>
