<svg width="225" height="189" viewBox="0 0 225 189" fill="none" xmlns="http://www.w3.org/2000/svg">
<path d="M96.7381 88.2483C107.338 95.6179 104.733 108.358 106.116 119.545C107.224 128.705 107.565 137.969 109.261 147.062C109.611 151.031 114.328 152.121 117.502 150.757C117.71 150.832 117.909 150.899 118.117 150.965C114.091 159.859 111.828 162.72 109.99 172.316C109.554 174.57 176.675 179.098 180.853 171.7C181.772 170.08 186.148 144.562 186.148 144.562C186.148 144.562 189.918 176.209 191.329 183.758C192.741 191.298 223.052 187.102 223.052 187.036C222.029 177.118 210.511 174.883 203.662 172.202C201.427 159.244 209.488 102.788 194.626 91.9994C191.973 90.0765 187.862 89.6218 183.571 91.6016C183.334 91.6016 187.654 86.2591 189.169 83.1712C194.237 72.7894 191.036 57.6526 179.65 54.7635C168.529 51.8081 142.158 86.6759 142.357 89.906C142.518 91.7152 145.199 92.5109 146.525 92.2836C146.506 92.6909 146.639 93.0224 146.856 93.2687C146.118 94.879 143.892 94.5569 142.461 94.3012C128.205 88.9682 127.476 105.498 121.025 113.606C118.581 106.445 116.819 95.7978 118.79 91.1469C118.477 87.9642 116.857 85.274 116.185 82.1481C116.393 80.0358 118.193 75.5175 116.355 73.5567C114.224 69.7393 109.507 80.4715 110.937 82.4323L110.871 82.6691C106.646 81.2009 103.132 78.3781 100.082 75.1954C100.565 74.125 98.983 73.2441 98.3768 74.2577C96.4728 73.623 95.9234 71.1318 93.8679 70.8381C93.7258 70.5255 92.7502 70.4971 92.7786 70.5255C92.4566 70.4308 91.5567 70.8097 91.604 70.8571C90.3916 71.558 90.2211 73.2062 90.7894 74.4092C85.8638 78.0087 94.3321 85.1035 96.7665 88.2578L96.7381 88.2483Z" fill="white"/>
<path d="M113.94 142.059C111.913 142.438 109.971 141.254 108.607 139.71C108.418 139.492 108.238 139.264 108.067 139.037C108.38 141.718 108.759 144.398 109.261 147.06C109.611 151.029 114.329 152.118 117.502 150.754C117.71 150.83 118.118 150.963 118.118 150.963C118.118 150.963 130.564 123.199 131.133 119.069C132.231 111.046 121.063 140.723 113.94 142.059Z" fill="#C4C2C2"/>
<path d="M184.756 117.392C183.988 115.914 181.544 124.013 180.114 137.7C178.996 148.347 183.789 152.146 182.302 165.369C183.553 157.952 186.148 144.549 186.148 144.549C186.148 144.549 186.12 120.006 184.765 117.382L184.756 117.392Z" fill="#C4C2C2"/>
<path d="M177.206 95.8013C171.447 98.8704 161.254 108.22 156.263 99.8555C154.662 96.7959 151.413 100.007 149.357 98.1505C148.467 96.597 148.249 94.6931 146.639 93.5658C144.555 95.9055 140.662 93.2722 138.322 93.329C136.342 96.1707 138.436 101.153 142.262 100.358C142.84 100.244 143.352 99.8176 143.475 100.575C142.869 103.919 143.996 105.586 147.425 105.937C150.731 110.01 152.976 111.677 157.74 107.879C163.13 120.752 176.164 100.035 179.432 94.4941C178.684 94.9109 177.935 95.3467 177.206 95.8108V95.8013Z" fill="#C4C2C2"/>
<path d="M195.734 72.8959C194.957 73.038 194.162 73.1801 193.356 73.3316C193.338 68.5765 191.632 63.935 188.876 60.0703C175.946 41.675 157.769 65.5832 149.746 77.0069C149.016 77.9636 143.769 84.6985 143.039 85.6647C140.832 87.7107 139.667 91.4618 143.39 92.589C149.499 92.57 145.199 101.72 152.455 99.4943C155.296 98.1019 155.514 102.914 158.204 103.406C161.084 106.409 175.018 99.6648 169.865 98.7365C154.236 107.546 160.194 94.6539 150.56 97.4862C148.325 95.3265 149.736 90.9787 145.133 90.6282C141.912 90.2303 143.598 88.8663 144.896 87.275C146.023 85.8446 151.062 79.2992 152.142 77.9068C154.008 76.988 156.092 77.0732 158.091 77.3195C161.548 76.0028 156.291 73.8526 154.624 74.762C157.816 70.3194 161.075 65.8769 165.432 62.4952C165.887 66.2937 168.984 71.8066 173.464 70.9541C176.865 76.2397 183.913 77.8594 189.747 76.6564C189.075 79.9434 187.436 83.0503 184.936 85.2952C183.477 86.6024 185.333 88.9326 186.858 87.6728C190.467 84.689 192.646 80.3412 193.195 75.7281C194.351 75.444 198.585 73.7484 195.734 72.8864V72.8959ZM174.743 65.9621C174.667 66.1232 174.582 66.3031 174.478 66.4926C173.483 63.613 176.571 62.5426 174.743 65.9621ZM190.07 73.8716C184.85 74.6862 178.854 74.241 175.747 69.4385C182.728 60.6576 169.41 57.4275 172.195 68.245C169.344 67.203 168.132 63.6414 167.478 60.9323C179.877 50.0675 189.321 60.4776 190.06 73.8716H190.07Z" fill="#4C3451"/>
<path d="M223.554 183.409C221.072 176.077 212.405 173.321 205.395 172.44C205.017 149.621 206.333 129.066 202.364 106.455C201.228 95.1262 196.065 85.4928 183.543 90.7689C182.662 91.0721 183.06 92.9097 183.855 92.6255C188.885 90.8637 195.876 91.3657 198.159 99.5309C204.496 122.208 200.602 173.444 202.828 174.656C205.054 175.869 217.7 178.095 220.665 183.844C221.906 188.268 224.549 188.154 223.544 183.418L223.554 183.409Z" fill="#4C3451"/>
<path d="M187.502 132.38C187.123 127.379 186.64 122.396 186.129 117.405C186.015 116.334 184.196 116.372 184.215 117.48C184.31 124.963 184.698 132.418 185.191 139.873C184.717 142.402 184.187 144.912 183.77 147.451C183.325 150.207 182.918 152.964 182.463 155.711C181.563 161.205 181.44 164.17 180.853 169.701C180.767 170.535 182.056 170.867 182.311 170.042C183.979 164.681 184.395 161.735 185.276 156.184C185.532 154.584 185.769 152.973 185.996 151.363C186.47 157.624 189.226 177.62 190.183 182.546C190.401 183.692 192.333 183.74 192.314 182.47C192.267 178.113 188.156 141.133 187.493 132.38H187.502Z" fill="#4C3451"/>
<path d="M165.147 70.6579C164.229 67.3994 160.402 69.1707 160.506 72.0029C160.686 76.2466 165.905 74.1248 165.147 70.6579Z" fill="#4C3451"/>
<path d="M172.801 76.3061C172.233 72.9813 167.004 74.5537 168.33 77.6607C169.23 80.0193 173.237 78.7595 172.801 76.3061Z" fill="#4C3451"/>
<path d="M165.687 73.2551C165.574 73.4445 165.176 73.9276 165.157 73.975C165.015 74.136 164.579 74.5812 164.532 74.6475C161.823 77.9344 155.827 77.745 160.79 83.059C160.383 83.6084 159.947 84.1293 159.464 84.603C155.533 86.8479 162.694 93.0239 163.689 88.5151C163.272 86.9995 160.762 87.7004 160.809 85.7112C163.698 82.2065 162.249 83.1253 161.425 79.9047C161.425 79.971 161.425 79.9426 161.425 79.8289C164.068 78.8153 166.369 76.8735 167.506 74.2402C168.027 73.1698 166.341 72.2794 165.678 73.2456L165.687 73.2551Z" fill="#4C3451"/>
<path d="M169.458 87.0196C169.41 86.5176 169.107 85.4661 169.012 85.2577C168.956 83.7232 166.919 80.2184 165.375 82.3402C165.176 84.3768 167.071 86.2239 167.222 88.3457C168.15 91.0169 170.016 88.933 169.458 87.0101V87.0196Z" fill="#4C3451"/>
<path d="M122.598 139.778C120.666 138.897 117.341 149.128 117.17 149.251C110.615 152.992 109.753 140.906 108.295 140.906C106.836 140.906 108.067 154.555 116.062 153.485C114.092 159.13 107.982 170.459 110.038 171.691C111.023 172.288 113.997 166.254 117.218 156.98C120.675 147.025 123.602 140.243 122.598 139.788V139.778Z" fill="#4C3451"/>
<path d="M140.311 93.348C127.334 89.9095 125.506 101.835 121.338 109.877C118.922 98.9462 120.447 105.861 118.884 95.0436C120.713 92.2492 119.282 89.0475 118.221 86.2248C116.696 82.6821 118.013 78.95 118.051 75.2842C116.308 66.617 109.317 77.1597 110.085 81.3939C107.006 79.7173 103.852 78.1733 101.057 76.0325C101.237 73.977 99.485 71.5805 97.401 73.0392C97.3537 72.9161 97.0979 72.5277 97.1169 72.5561C95.6676 68.6819 89.2453 68.483 89.9084 73.3897C84.888 77.6523 91.064 84.5482 94.7204 87.0299C97.2874 91.5577 102.592 93.689 103.871 98.9556C103.861 99.0125 103.833 99.0693 103.833 99.1356C103.852 108.295 104.714 118.241 105.983 118.241C107.252 118.241 105.888 103.711 105.633 99.0693C105.633 98.9935 105.595 98.9272 105.576 98.8609C105.945 93.1964 99.9112 90.4495 96.4917 86.992C94.8624 83.7051 96.0938 77.6049 98.784 74.7348C99.485 81.6117 97.9978 85.7796 106.58 87.4372C109.374 88.5076 111.183 91.3209 111.278 94.2668C111.316 95.4319 113.002 95.6687 113.135 94.4373C113.428 91.6998 112.235 88.8013 110.198 86.9731C106.144 83.5536 99.9775 85.7701 101.105 78.1543C103.634 80.4087 106.712 82.5495 110.151 82.9284C109.942 83.9988 111.524 84.4061 111.695 83.2789C112.036 80.1435 112.888 75.6062 115.721 73.9675C116.355 78.2301 114.082 82.7484 116.166 86.9541C117.094 89.3128 117.871 93.007 117.113 94.3047C115.777 96.5686 118.941 112.899 120.353 114.254C126.443 116.347 127.438 91.1409 139.875 95.2519C141.002 95.6214 141.249 93.8027 140.311 93.348ZM94.5593 84.9081C90.9882 81.0529 89.1127 77.4534 90.0789 76.0893C90.6851 75.2273 91.4524 75.341 94.6256 79.2721C94.5404 80.7592 94.1615 83.4873 94.5593 84.9176V84.9081ZM95.4213 76.7998C94.1804 75.4736 92.9301 74.0149 91.2251 73.3708C91.1493 72.8498 91.2629 72.3288 91.6134 71.9404C93.6879 70.207 94.8246 73.5223 96.2644 74.4411C95.876 75.1895 95.6202 76.042 95.4213 76.8092V76.7998Z" fill="#4C3451"/>
<path d="M209.042 183.345C208.483 182.313 207.451 181.65 206.276 181.612C206.039 181.612 205.793 181.612 205.556 181.621C205.414 181.621 205.281 181.621 205.139 181.621C205.092 181.621 204.94 181.593 204.893 181.583C204.76 181.546 204.618 181.489 204.495 181.432C204.448 181.403 204.344 181.337 204.315 181.318C204.22 181.252 204.126 181.167 204.031 181.1L204.003 181.072C204.003 181.072 203.984 181.053 203.965 181.025C203.889 180.949 203.813 180.873 203.747 180.797C203.567 180.608 203.415 180.399 203.264 180.182C202.98 179.793 202.676 179.424 202.402 179.026C202.146 178.647 201.559 178.59 201.189 178.827C200.772 179.092 200.668 179.547 200.82 180.002C200.858 180.106 200.896 180.219 200.934 180.324C200.934 180.324 201.038 180.646 200.99 180.494C201.076 180.759 201.151 181.025 201.275 181.271C201.492 181.707 201.777 182.161 202.099 182.531C202.781 183.317 203.718 183.866 204.76 184.018C205.234 184.084 205.717 184.018 206.191 184.056C206.238 184.056 206.39 184.094 206.418 184.094C206.475 184.113 206.522 184.131 206.579 184.15C206.589 184.15 206.598 184.15 206.607 184.15H206.617C206.617 184.15 206.731 184.226 206.778 184.274C206.806 184.302 206.835 184.34 206.863 184.378C206.892 184.416 206.948 184.51 206.958 184.52C206.977 184.558 206.986 184.596 207.015 184.634C207.015 184.671 207.034 184.7 207.034 184.738C207.034 184.776 207.043 184.804 207.053 184.842C207.053 184.87 207.034 185.012 207.034 185.06V185.079C206.996 185.183 206.977 185.278 206.958 185.382C206.939 185.448 206.92 185.505 206.892 185.571C206.693 186.083 206.93 186.661 207.403 186.916C207.915 187.191 208.436 187.021 208.805 186.604C209.572 185.742 209.62 184.34 209.08 183.355L209.042 183.345Z" fill="#4C3451"/>
<path d="M84.2445 60.1361C84.2445 60.1361 92.4949 52.0656 94.3421 51.8193C96.1892 51.573 102.659 52.9276 105.178 50.6447C107.698 48.3619 108.873 37.4687 108.939 31.7947C109.005 26.1303 107.584 23.2317 100.565 22.5592C93.5464 21.8866 31.3697 22.0666 25.118 22.7486C18.8662 23.4306 17.6064 26.5091 17.6632 32.1073C17.72 37.7055 16.8581 51.3457 24.1897 51.8762C32.2601 52.454 85.7317 52.4919 85.7317 52.4919L84.2445 60.1266V60.1361Z" fill="white"/>
<path d="M174.809 43.2968C181.696 43.2968 184.386 41.9328 185.163 35.2831C185.939 28.6335 186.366 12.4358 186.157 7.54804C185.949 2.66029 181.421 1.60886 173.426 1.46677C165.432 1.32469 107.849 1.34363 102.677 1.46677C97.5052 1.58991 95.4592 4.36532 95.2508 8.25847C95.0424 12.1516 95.2508 22.4481 95.2508 22.4481C95.2508 22.4481 104.827 22.2302 107.205 24.532C109.583 26.8338 108.057 43.2778 108.057 43.2778C108.057 43.2778 132.316 42.8895 134.296 43.2968C136.276 43.7041 145.407 52.1913 145.407 52.1913L142.149 43.2968H174.809Z" fill="#FDCA0C"/>
<path d="M177.414 20.7731C176.543 18.1587 173.407 16.7094 170.84 16.359C168.093 15.9895 165.166 16.9557 163.139 18.8312C162.164 19.7406 161.548 20.811 160.8 21.9003C159.796 23.3685 158.46 23.4916 156.992 22.5634C155.694 21.7487 154.794 20.4321 153.695 19.3901C152.587 18.3387 151.327 17.5904 149.812 17.2683C146.762 16.6147 143.749 17.7514 141.277 19.5038C140.131 20.3279 139.127 21.3035 138.094 22.2602C137.052 23.2169 135.774 24.3821 134.239 24.1074C131.416 23.5958 129.986 19.8637 127.921 18.1871C125.506 16.2263 122.228 16.359 119.529 17.6377C116.327 19.1533 114.101 22.3834 110.757 23.5674C109.071 24.1642 107.499 23.6621 106.523 22.1655C105.472 20.5457 105.472 18.5187 105.121 16.681C104.96 15.8285 103.757 15.9043 103.634 16.7378C103.208 19.6364 103.606 23.0654 106.059 25.0167C108.541 26.987 111.704 25.9924 114.082 24.4105C116.81 22.6012 119.064 19.7406 122.437 19.1059C126.112 18.4239 127.533 21.3888 129.607 23.7379C131.502 25.8882 134.201 27.3374 137.005 25.9924C139.743 24.6852 141.457 21.9098 144.157 20.4889C145.587 19.7406 147.197 19.2859 148.817 19.4943C150.541 19.7122 151.706 20.7162 152.843 21.9382C154.699 23.9368 157.143 26.3712 160.156 25.4335C161.832 24.9125 162.618 23.4822 163.528 22.0992C164.399 20.7731 165.583 19.769 167.07 19.1817C168.652 18.5565 170.405 18.5281 171.996 19.1059C173.587 19.6838 174.696 20.8678 176.022 21.8719C176.817 22.4686 177.679 21.5688 177.405 20.7447L177.414 20.7731Z" fill="#FCA710"/>
<path d="M112.794 180.744C108.948 169.235 92.4284 175.136 91.7369 174.256C90.3729 172.513 87.4175 157.186 87.9196 152.393C92.741 146.464 105.377 150.167 105.927 140.581C106.002 137.635 104.127 134.557 105.633 131.734C108.835 130.294 118.496 126.771 111.146 123.559C103.104 122.366 94.2376 125.681 87.6922 130.285C87.4933 120.348 79.2808 112.117 69.9315 109.673C70.6893 108.328 71.4376 106.973 72.2617 105.657C78.163 106.386 84.8884 103.213 85.5704 96.7242C87.6543 96.0611 88.5637 93.5225 86.6219 91.0028C84.0454 87.0434 81.7341 83.1218 78.9492 79.295C84.3295 75.7807 80.3985 68.4586 75.1129 66.5641C65.5269 63.4098 51.4509 65.1338 45.2181 73.5168C42.1112 78.9729 43.03 86.7403 38.0286 91.1355C32.0136 95.7485 19.6901 106.026 33.9176 110.506C31.3506 112.069 28.4331 113.471 27.7795 116.616C27.0122 119.316 29.5319 122.697 32.3925 121.494C32.6578 121.798 33.0272 122.006 33.3871 122.176C30.5833 128.684 28.0447 137.938 24.5399 144.152C17.4925 151.351 11.3828 157.916 24.8809 162.737C15.5791 167.985 7.1392 174.094 2.85769 184.088C2.42196 185.092 116.962 187.962 112.803 180.763L112.794 180.744Z" fill="#FDCA0C"/>
<path d="M75.6241 105.615C74.5442 105.653 73.4928 105.482 72.4508 105.217C71.4089 104.952 70.3953 104.658 69.3534 104.431C68.3682 104.223 67.3831 104.024 66.4075 103.787C64.693 103.361 63.0827 102.697 61.6334 101.684C61.2734 101.428 60.8756 101.144 60.4778 100.841C60.2315 100.926 59.9757 100.992 59.7294 101.049C59.2748 101.153 58.8106 101.21 58.3465 101.201C58.176 101.201 57.996 101.172 57.8255 101.153C55.9216 102.546 53.8755 103.522 51.4695 104.08C48.3626 104.81 44.9715 105.388 41.7793 105.426C41.012 105.426 40.2353 105.397 39.468 105.274C38.6913 105.151 37.9619 104.772 37.2041 104.658C36.4937 104.545 36.1717 104.971 35.6033 105.302C35.0444 105.624 34.3908 105.785 33.7467 105.804C30.8198 105.899 29.4368 103.218 29.6547 100.614C29.6926 100.159 29.4463 99.8368 29.1147 99.6758C26.292 103.768 26.0267 108.021 33.9078 110.503C31.3407 112.066 28.4233 113.468 27.7697 116.612C27.0024 119.312 29.5221 122.694 32.3827 121.491C32.6479 121.794 33.0174 122.002 33.3773 122.173C33.2163 122.552 33.0458 122.949 32.8847 123.347C34.0025 122.087 34.9781 120.704 35.8307 119.464C37.3273 117.304 38.8997 115.277 41.192 113.903C43.4085 112.587 45.8808 111.971 48.4478 111.943C49.755 111.924 51.1001 111.98 52.3315 111.459C53.4966 110.967 54.4533 110.162 55.4006 109.328C57.3519 107.614 59.2937 105.89 61.2355 104.166C61.9933 104.961 62.6754 105.842 63.4237 106.572C65.0245 108.116 67.0137 109.196 69.1545 109.773C70.0354 110.01 70.9258 110.162 71.8162 110.256C71.191 110.039 70.5658 109.84 69.9312 109.679C70.689 108.334 71.4373 106.979 72.2614 105.662C73.4265 105.804 74.6295 105.776 75.8041 105.615C75.7472 105.615 75.6904 105.615 75.6336 105.615H75.6241Z" fill="#FCA710"/>
<path d="M87.8724 153.471C87.6262 153.774 87.3799 154.067 87.1336 154.361C86.2432 155.394 85.3338 156.407 84.4055 157.411C82.8521 159.107 81.1281 160.547 79.101 161.655C76.9697 162.82 74.5638 163.559 72.1957 164.061C71.2863 164.25 70.3486 164.336 69.4392 164.184C69.0603 164.525 69.0035 165.141 69.155 165.595C69.2592 165.908 69.335 166.221 69.3918 166.533C69.496 166.552 69.6002 166.618 69.676 166.751C70.3201 167.84 70.9737 168.92 71.4189 170.104C71.8831 171.345 72.2051 172.652 72.4988 173.941C73.0198 176.242 73.2187 178.648 73.2755 181.007C73.3134 182.456 73.266 183.924 73.1145 185.374C75.1795 185.336 77.216 185.298 79.2052 185.25C79.3662 183.574 79.4136 181.878 79.3568 180.202C79.2526 177.104 78.7979 173.988 77.8507 171.032C78.7884 170.881 79.7073 170.635 80.5977 170.322C82.9847 169.488 85.1444 168.049 86.8589 166.202C87.664 165.33 88.3555 164.354 88.9239 163.312C88.2892 159.609 87.844 155.867 87.8724 153.49V153.471Z" fill="#FCA710"/>
<path d="M74.3647 168.343C70.7462 163.067 67.3646 164.81 64.5987 162.745C61.8327 160.68 45.957 142.465 45.957 142.465C45.957 142.465 51.3942 156.588 57.9206 165.549C64.4471 174.51 75.3214 174.5 74.3647 168.343Z" fill="#FCA710"/>
<path d="M69.2593 167.101C63.216 169.422 37.1669 169.081 24.815 162.744C15.532 167.982 7.12058 174.092 2.83907 184.076C2.59278 184.663 41.1074 185.876 72.641 185.374C72.641 179.794 71.9779 170.691 69.2593 167.101Z" fill="#8E7F91"/>
<path d="M115.314 124.836C113.429 121.18 102.119 122.856 95.4693 125.575C86.8021 129.118 79.1389 135.322 74.147 143.336C73.2566 144.008 72.1104 142.351 71.6084 141.782C67.0238 136.44 61.975 132.357 57.6651 126.797C57.2483 126.257 56.2726 126.825 56.6326 127.432C59.3132 132.007 62.837 134.953 66.0671 139.177C68.0941 141.83 72.7924 149.417 76.2499 144.463C81.185 136.677 88.0619 130.463 96.1229 127.441C101.342 125.48 111.923 123.235 113.202 125.641C114.49 128.047 103.777 130.557 101.096 132.651C99.7034 134.375 102.791 133.911 103.938 133.532C102.593 137.321 107.925 140.92 102.488 145.183C97.0417 149.445 92.6844 146.651 88.8292 150.449C84.1498 155.063 79.9062 161.125 73.2471 162.801C65.3377 164.639 60.6867 156.228 55.8558 151.463C52.891 148.167 50.0872 144.738 46.8476 141.697C46.0425 140.949 45.0668 142.218 45.5973 143.004C47.9938 146.547 50.8449 149.73 53.6772 152.922C58.8017 158.132 63.7653 166.287 72.0631 165.501C80.6545 164.506 85.1918 156.265 91.1215 151.018C94.9199 148.981 99.8834 149.351 103.549 146.556C110.616 141.167 103.767 135.673 105.917 132.963C109.252 131.628 117.076 128.275 115.304 124.836H115.314Z" fill="#4C3451"/>
<path d="M74.2794 179.672C74.1468 175.012 73.1237 169.84 69.6568 166.809C67.2224 166.382 71.0019 173.856 70.8219 175.561C71.5324 178.336 70.8693 181.377 71.5703 184.096C73.6637 186.577 74.4972 181.282 74.2794 179.672Z" fill="#4C3451"/>
<path d="M55.6943 95.5791C55.6943 95.5791 55.7421 95.5696 55.7803 95.5314H55.7612C55.7612 95.5314 55.7134 95.5696 55.6943 95.5791Z" fill="#4C3451"/>
<path d="M88.5544 93.5101C88.5734 91.5114 82.7952 84.5303 80.3135 79.8225C92.0308 61.0672 54.4728 59.6842 46.0045 70.6817C41.8272 74.4138 42.2819 80.0309 40.5863 84.8997C37.0058 92.9133 16.5833 103.721 31.5307 111.11C25.7715 112.834 24.3033 123.604 31.8528 123.017C29.8352 128.387 29.2858 134.345 26.1978 139.271C20.628 145.352 7.97295 158.244 21.8973 162.895C17.0759 162.715 -3.63071 184.483 4.37344 184.293C9.37486 174.868 17.3316 167.366 27.2682 163.378C28.367 162.886 27.8744 161.029 26.643 161.313C9.06227 157.572 24.2181 147.768 29.1721 140.048C35.2439 127.914 32.2127 110.977 53.1846 111.924C64.4188 102.973 63.1874 99.7429 52.0668 109.566C46.7813 109.954 36.8258 109.983 32.3738 121.491C29.7405 121.454 27.7797 119.095 28.689 116.5C29.4752 112.161 38.0193 112.284 34.9124 109.878C17.5685 104.148 41.4388 93.3585 43.2102 84.4545C40.8894 65.1877 84.9076 58.4434 79.1389 77.8901C69.0508 64.3731 79.7167 84.3692 57.3714 93.4911C49.2157 90.9241 52.3226 104.905 59.5216 101.666C64.3809 105.332 64.7503 96.0013 59.891 99.023C58.9533 99.9513 56.6609 99.3451 55.6569 98.4641C55.4674 98.3031 54.9749 97.5737 55.0033 97.0906C55.0033 97.1096 55.0033 97.1285 55.0033 97.138C55.0127 97.0812 54.9843 96.9012 55.0033 97.0622C54.9559 96.6549 55.1643 96.096 55.3822 95.8687C55.5337 95.7171 55.6474 95.6319 55.8179 95.5087L55.799 95.5277C56.0547 95.3856 56.3199 95.253 56.6041 95.1677C65.0061 93.9079 74.1659 86.4058 75.5299 77.3597C79.6599 82.579 86.5084 91.7387 86.8494 93.709C87.001 94.571 85.9022 96.1623 86.3 96.3518C86.8115 96.5981 88.5544 95.5182 88.5734 93.5195L88.5544 93.5101Z" fill="#4C3451"/>
<path d="M85.4189 96.0581C85.0305 95.0066 83.5149 95.736 83.8465 96.7685C84.2632 98.0567 83.6096 99.4681 82.9466 100.548C82.2267 101.723 81.3742 102.802 80.2659 103.626C78.0115 105.313 75.3024 104.47 72.7259 104.678C72.0249 104.735 71.9302 105.843 72.5933 106.051C74.0899 106.525 75.8328 106.544 77.3863 106.43C78.8829 106.317 80.6732 105.938 81.8667 104.981C83.2402 103.882 84.1685 102.499 84.9263 100.927C85.6746 99.3923 86.0251 97.6968 85.4189 96.0581Z" fill="#4C3451"/>
<path d="M80.7874 97.0532C80.5696 96.1817 78.0215 96.8827 75.5776 97.129C73.8821 97.2995 71.9971 96.8637 71.514 97.7731C71.0309 98.6824 76.2218 104.432 78.372 103.068C79.8402 102.045 75.786 99.677 75.0756 99.0424C76.7522 98.9855 81.1569 98.5309 80.778 97.0627L80.7874 97.0532Z" fill="#4C3451"/>
<path d="M76.5248 88.0582C76.4869 87.7456 76.3827 87.4425 76.288 87.1394C76.1743 86.8173 75.9944 86.5331 75.8144 86.2395C75.7576 86.1448 75.7007 86.069 75.625 85.9932C75.4545 85.8227 75.2934 85.6427 75.085 85.5196C74.9524 85.4533 74.8198 85.3775 74.6872 85.3112C74.4788 85.226 74.2609 85.1881 74.0336 85.2165C73.8915 85.207 73.7494 85.226 73.6168 85.2828C73.4084 85.3302 73.219 85.4249 73.0485 85.567C72.8306 85.7659 72.6506 86.0027 72.537 86.2774C72.5085 86.3342 72.4991 86.3911 72.4896 86.4574C72.4422 86.5237 72.4138 86.5995 72.3854 86.6752C72.1865 87.2436 72.1296 87.8403 72.2338 88.4371C72.2812 88.7402 72.3759 89.0433 72.5085 89.318C72.679 89.678 72.9632 90.0853 73.3042 90.3126C73.6263 90.521 73.901 90.6442 74.2799 90.6915C74.3841 90.701 74.4693 90.6915 74.583 90.6915C74.6493 90.6915 74.763 90.6915 74.8482 90.682C74.9903 90.6536 75.1703 90.5968 75.3029 90.5494C75.4544 90.4831 75.606 90.3884 75.7386 90.2937C75.8239 90.2274 75.8902 90.1516 75.966 90.0758C76.0417 90 76.108 89.9337 76.1649 89.8485C76.2407 89.7253 76.3354 89.5548 76.3922 89.4222C76.4017 89.4033 76.4112 89.3749 76.4206 89.3559C76.4775 89.1949 76.5059 89.0149 76.5438 88.8444C76.5438 88.8065 76.5627 88.7686 76.5627 88.7307C76.5817 88.5129 76.5627 88.2855 76.5438 88.0677L76.5248 88.0582Z" fill="#4C3451"/>
<path d="M71.2961 109.081C71.5613 108.588 71.6845 108.352 71.9023 108.011C72.4138 107.196 71.6087 105.481 70.4815 106.694C69.6384 107.745 65.9158 113.306 69.1838 112.699C69.7805 112.178 70.0742 111.118 70.3489 110.739C83.4965 114.717 86.0256 128.045 87.5317 127.353C89.682 126.378 84.6805 112.709 71.2866 109.09L71.2961 109.081Z" fill="#4C3451"/>
<path d="M113.144 180.06C110.359 174.604 107.688 170.313 93.3564 173.411C91.1304 173.894 89.217 156.36 87.9666 157.279C86.7162 158.198 87.7866 175.798 92.4849 175.921C101.199 176.148 105.974 171.8 111.164 180.685C111.894 181.936 113.788 182.078 113.135 180.06H113.144Z" fill="#4C3451"/>
<path d="M103.757 182.133C103.34 181.082 101.995 180.409 101.048 179.916C100.044 179.395 99.0113 178.969 97.9031 178.732C96.9274 178.514 95.8949 178.42 94.9098 178.619C93.8962 178.827 92.9016 179.367 92.0681 179.954C91.244 180.532 92.087 181.877 92.9869 181.441C93.7636 181.072 94.493 181.081 95.336 181.138C96.1696 181.195 96.88 181.28 97.6189 181.498C98.4998 181.764 99.3334 182.123 100.148 182.55C101.019 183.004 102.014 183.611 103.028 183.497C103.681 183.421 103.975 182.682 103.757 182.133Z" fill="#4C3451"/>
<path d="M98.0643 21.0781C95.4309 21.0781 79.1006 21.1255 63.187 21.3339C47.2734 21.135 30.9525 21.0781 28.3097 21.0781C22.9578 21.0781 16.4124 21.7412 16.4219 29.8685C16.4314 37.9958 16.9902 47.5913 19.1499 50.3951C20.7602 52.5075 23.5262 53.36 26.0932 53.3694C26.7089 53.3979 28.0918 53.2463 80.654 53.2463C83.6947 53.2463 83.6947 50.7456 80.654 50.7456C27.4193 50.7456 24.6628 50.7266 23.4693 50.2625C20.2677 49.0311 19.794 42.8456 19.6709 39.8145C19.3488 31.9429 18.2216 26.3353 22.0579 24.8102C24.1419 24.2893 24.4071 23.9104 28.395 23.9104C30.3747 23.9104 46.9798 23.8914 63.1775 23.7114C79.3847 23.8819 95.9803 23.9104 97.9601 23.9104C101.948 23.9104 102.213 24.2893 104.297 24.8102C108.133 26.3353 107.944 30.0011 107.205 37.8442C106.845 41.6426 106.087 49.0311 102.886 50.2625C101.238 50.9066 96.6529 50.7266 94.9384 50.7266C92.144 50.7266 85.9965 57.3194 85.9965 57.3194C85.9965 57.3194 86.8774 54.4114 87.711 52.6874C88.9424 50.1583 86.3753 49.912 85.8165 51.1434C84.4619 54.1083 82.3117 59.7159 81.7434 61.6104C81.175 63.4954 82.4348 64.0732 83.4768 63.2586C87.3984 60.1517 92.6366 53.1895 94.5974 53.1895C96.5582 53.1895 99.3051 53.4168 100.252 53.3789C102.829 53.3789 105.585 52.5169 107.196 50.4046C109.355 47.6008 109.914 37.9958 109.924 29.878C109.933 21.7507 103.388 21.0876 98.0358 21.0876L98.0643 21.0781Z" fill="#4C3451"/>
<path d="M142.954 42.5945C142.395 41.3631 139.828 41.6094 141.059 44.1385C141.893 45.8625 142.774 48.7705 142.774 48.7705C142.774 48.7705 136.626 42.1777 133.832 42.1777C132.629 42.1777 117.577 42.263 108.181 42.0925C108.143 42.4903 108.095 42.8882 108.048 43.286C107.972 43.807 107.878 44.3185 107.773 44.8205C115.92 44.7732 132.667 44.6405 134.173 44.6405C136.134 44.6405 141.372 51.6027 145.294 54.7097C146.335 55.5148 147.595 54.9465 147.027 53.0615C146.459 51.1765 144.308 45.5688 142.954 42.5945Z" fill="#4C3451"/>
<path d="M178.902 44.7383C178.457 44.7951 178.011 44.8235 177.576 44.8235C177.159 44.8425 187.635 44.7762 178.902 44.7383Z" fill="#4C3451"/>
<path d="M175.359 0.158203C172.726 0.158203 156.395 0.205565 140.482 0.413957C124.568 0.215037 108.247 0.158203 105.605 0.158203C100.253 0.158203 93.7073 0.821269 93.7168 8.94856C93.7168 13.6753 93.7547 17.7389 93.8305 21.9257C94.3325 21.8689 94.8251 21.8215 95.3366 21.7836C95.6871 21.7552 96.0375 21.7363 96.3975 21.7173C96.3407 18.904 96.3312 16.4033 96.3217 14.3005C96.2933 9.68741 95.5166 5.4059 99.3529 3.88085C101.437 3.35986 101.702 2.98097 105.69 2.98097C107.67 2.98097 124.275 2.96202 140.472 2.78205C156.68 2.95255 173.275 2.98097 175.255 2.98097C179.243 2.98097 179.508 3.35986 181.592 3.88085C185.428 5.4059 184.652 9.68741 184.623 14.3005C184.595 18.9135 184.623 25.3168 183.979 33.1694C183.979 36.2006 183.373 40.4916 180.181 41.723C178.987 42.1966 170.576 42.2061 148.107 42.2061C145.067 42.2061 145.067 44.7068 148.107 44.7068C165.517 44.7068 174.554 44.7257 178.883 44.7447C181.033 44.4889 183.164 43.6174 184.5 41.8651C186.66 39.0612 186.745 34.7987 186.859 31.4265C187.133 23.214 187.209 17.0853 187.228 8.95804C187.238 0.830742 180.692 0.167675 175.34 0.167675L175.359 0.158203Z" fill="#4C3451"/>
<path d="M91.6706 35.1898C89.4446 35.8908 87.5122 37.2264 85.3525 38.0978C83.0602 39.0166 80.7679 38.7419 78.4472 38.0884C74.6582 37.0274 70.2631 35.3982 66.6067 37.7568C65.8963 38.2115 65.3374 38.8177 64.7217 39.3861C63.6798 40.3333 62.7894 40.3996 61.4727 39.8692C59.3509 39.0166 57.3806 37.8231 55.2493 37.0085C51.9624 35.7487 47.6146 35.654 45.1329 38.4294C42.3953 36.6675 39.2884 34.953 36.0015 34.9814C33.2356 35.0098 30.015 36.2602 29.0014 39.0356C28.6983 39.8502 29.8729 40.5322 30.3749 39.7744C31.8147 37.6242 34.0597 36.5728 36.6456 36.7812C39.7336 37.0369 42.2911 38.9314 44.7634 40.5985C45.1897 40.8922 45.8906 40.8638 46.1938 40.3807C48.1735 37.179 52.3982 37.88 55.3251 39.1493C58.4037 40.4943 62.3631 44.0844 65.6595 41.5363C67.1182 40.4091 67.9992 39.1303 69.9505 38.8367C71.8355 38.5525 73.7678 39.0545 75.5581 39.6134C77.5 40.2102 79.4607 40.9206 81.5068 41.0627C83.5339 41.2048 85.4567 40.7122 87.2754 39.8407C89.3215 38.8651 91.2444 37.4632 93.4988 36.9896C95.4217 36.5822 97.9982 37.2074 98.576 39.3671C98.8317 40.3428 100.253 40.1344 100.139 39.1019C99.6842 34.9909 94.9481 34.1478 91.6801 35.1709L91.6706 35.1898Z" fill="#C4C2C2"/>
<path d="M211.904 33.0407C210.881 32.6997 209.744 33.2017 208.816 33.609C207.717 34.0921 206.675 34.6983 205.671 35.3614C201.683 37.9852 198.415 41.5374 195.185 45.0232C194.351 45.9231 195.895 47.0219 196.719 46.1504C199.239 43.4982 201.797 40.8364 204.695 38.5915C206.097 37.5116 207.584 36.5644 209.138 35.7119C209.583 35.4656 211.061 34.4236 211.572 34.812C212.188 35.2856 211.042 36.6402 210.928 37.0948C210.729 37.9 211.525 38.5631 212.254 38.0515C213.902 36.877 214.016 33.7606 211.894 33.0407H211.904Z" fill="white"/>
<path d="M207.328 26.2477C206.93 26.513 206.485 26.7308 206.115 27.0245C205.765 27.3086 205.424 27.6118 205.092 27.9149C204.401 28.5306 203.719 29.1747 203.065 29.8283C201.739 31.1639 200.527 32.6226 199.352 34.1003C199.096 34.4224 199.2 34.9244 199.513 35.1518C199.864 35.4075 200.299 35.2938 200.564 34.9907C201.749 33.6457 203.027 32.4048 204.325 31.1734C204.969 30.5671 205.613 29.9704 206.276 29.3926C206.617 29.0989 206.968 28.8053 207.309 28.5116C207.669 28.199 207.962 27.8201 208.322 27.4886C209.071 26.7782 208.171 25.6889 207.318 26.2477H207.328Z" fill="#4C3451"/>
<path d="M216.127 49.7285C210.52 48.2887 204.855 49.2264 199.901 52.1913C199.172 52.627 199.664 53.83 200.46 53.4227C205.102 51.0262 210.681 50.2779 215.824 51.0356C216.563 51.1493 216.876 49.9179 216.127 49.7285Z" fill="#FCA710"/>
<path d="M224.321 104.168C221.943 104.168 219.509 104.613 217.198 105.163C214.858 105.721 212.547 106.451 210.283 107.246C209.222 107.616 209.961 109.131 210.993 108.819C213.191 108.146 215.417 107.616 217.662 107.123C219.888 106.64 222.171 106.28 224.378 105.712C225.164 105.513 225.268 104.168 224.321 104.168Z" fill="#FCA710"/>
<path d="M215.096 101.536C214.982 101.498 214.859 101.451 214.736 101.442C214.527 101.423 214.414 101.47 214.215 101.527C214.101 101.565 213.978 101.603 213.864 101.631C213.627 101.707 213.4 101.773 213.163 101.849C212.699 101.991 212.235 102.143 211.771 102.285C211.553 102.351 211.345 102.616 211.269 102.815C211.184 103.033 211.184 103.336 211.288 103.544C211.401 103.762 211.581 103.971 211.818 104.047C212.074 104.132 212.301 104.113 212.548 104.028C213.002 103.876 213.457 103.724 213.902 103.573L214.565 103.346C214.679 103.308 214.793 103.27 214.916 103.232C215.143 103.147 215.313 102.986 215.456 102.796C215.759 102.379 215.598 101.697 215.077 101.527L215.096 101.536Z" fill="#4C3451"/>
<path d="M30.2325 76.2922C28.9064 75.5533 27.5329 74.8808 26.0931 74.3882C25.4111 74.1514 24.7291 73.9525 24.0281 73.7915C23.1851 73.5925 22.2662 73.2705 21.4232 73.5736C20.7033 73.8293 20.7317 74.8145 21.2527 75.2313C21.821 75.6859 22.7114 75.7144 23.3935 75.8849C24.066 76.0554 24.7291 76.2448 25.3921 76.4437C26.7372 76.87 28.0444 77.372 29.3137 77.9877C29.7399 78.1961 30.2988 77.9309 30.5072 77.533C30.7061 77.1447 30.6588 76.529 30.2325 76.2922Z" fill="#FCA710"/>
<path d="M32.0326 73.7123C31.9284 73.5797 31.8336 73.4471 31.7389 73.3144C31.7105 73.2766 31.6915 73.2387 31.6631 73.2008C31.6252 73.1345 31.5874 73.0682 31.5495 73.0019C31.3884 72.6987 31.2464 72.3861 31.1327 72.0546C31.1232 72.0262 31.1137 71.9978 31.1043 71.9694C31.1043 71.8652 31.038 71.7231 31.0095 71.6378C30.9811 71.5336 30.9527 71.42 30.9053 71.3252C30.9053 71.3252 30.8864 71.2589 30.8769 71.221C30.7917 70.88 30.7254 70.5296 30.6875 70.1791C30.6591 69.9707 30.6496 69.7623 30.5738 69.5539C30.4412 69.194 30.0623 68.9382 29.6739 69.0045C29.0203 69.1182 28.8972 69.8097 28.8309 70.3591C28.7835 70.7758 28.793 71.1926 28.8309 71.6094C28.8688 72.0357 28.9446 72.4051 29.0772 72.8124C29.3424 73.6365 29.7781 74.4132 30.3181 75.0952C30.678 75.5499 31.4263 75.6541 31.8715 75.2563C32.3262 74.8584 32.4209 74.1859 32.0326 73.7028V73.7123Z" fill="#4C3451"/>
<path d="M23.8767 93.3197C20.7887 90.8948 17.5017 88.8393 13.9591 87.1343C12.1404 86.2628 10.2743 85.4766 8.37985 84.7946C8.10515 84.6904 7.79256 84.5673 7.4705 84.4441C7.01583 84.0084 6.55168 83.6011 6.11595 83.2222C4.54354 81.8487 2.78168 80.6931 0.858787 79.8784C0.205193 79.5943 -0.344204 80.5889 0.262027 80.9867C1.45555 81.7824 2.69643 82.6349 3.86153 83.5821C3.65314 83.6011 3.45422 83.639 3.26477 83.7053C-0.268425 84.9083 3.09427 90.2128 4.93191 91.4537C7.69784 93.3292 10.9942 90.8948 9.84807 87.7026C9.75334 87.4469 9.63968 87.2006 9.50706 86.9638C11.0132 87.5511 12.4909 88.1952 13.9401 88.9056C17.1229 90.4685 20.2203 92.3157 23.1189 94.3522C23.8009 94.8258 24.5208 93.8218 23.8767 93.3197ZM7.98201 89.8434C7.42314 90.5917 6.32435 90.2033 5.72759 89.7392C5.08346 89.2277 4.63826 88.4699 4.23095 87.7784C3.81417 87.0774 2.95218 85.7513 4.05098 85.344C4.60037 85.1451 5.50025 85.4766 6.21068 85.7513C6.74113 86.3291 7.22422 86.9354 7.64101 87.5795C8.02937 88.1857 8.47457 89.1803 7.98201 89.8434Z" fill="#4C3451"/>
<path d="M26.3393 90.6897C25.752 89.9413 25.1552 89.1836 24.568 88.4352C24.4259 88.2553 24.2838 88.0753 24.1417 87.8953C24.0659 87.8101 23.9996 87.7153 23.9238 87.6301C23.8575 87.5543 23.7818 87.488 23.706 87.4217L23.7723 87.4785C23.7723 87.4785 23.6776 87.3743 23.6586 87.3459C23.5071 87.1754 23.3555 87.0049 23.2039 86.8344C22.9671 86.5597 22.7493 86.2755 22.3798 86.1808C22.0767 86.105 21.802 86.105 21.5463 86.3134C21.2905 86.5218 21.2337 86.7965 21.2432 87.1091C21.2526 87.4691 21.4705 87.7248 21.6884 87.9995C21.8304 88.1795 21.9631 88.3595 22.1051 88.5394C22.1336 88.5773 22.1715 88.6436 22.2093 88.6721C22.2472 88.7289 22.2472 88.7194 22.1999 88.6247L22.3325 88.8426C22.3988 88.9373 22.4746 89.0225 22.5503 89.1078C22.7019 89.2972 22.8629 89.4772 23.024 89.6666C23.6491 90.396 24.2743 91.1159 24.89 91.8453C25.2121 92.2147 25.8183 92.3284 26.2067 91.9874C26.5951 91.6464 26.6708 91.0875 26.3488 90.6707L26.3393 90.6897Z" fill="white"/>
<path d="M20.9684 102.843C19.6138 103.136 18.2877 103.506 16.99 103.979C16.3648 104.207 15.7491 104.472 15.1524 104.775C14.8303 104.936 14.5556 105.125 14.2714 105.334C13.9873 105.542 13.6936 105.713 13.4379 105.959C12.9453 106.452 13.2484 107.351 14.0157 107.238C14.3756 107.181 14.6977 107.048 15.0387 106.954C15.3702 106.868 15.6828 106.783 16.0049 106.66C16.6016 106.433 17.151 106.215 17.7478 105.987C18.9129 105.533 20.0969 105.116 21.2905 104.775C21.7925 104.633 22.1903 104.207 22.0956 103.648C22.0104 103.146 21.4894 102.738 20.9684 102.843Z" fill="white"/>
</svg>
