<svg width="24" height="25" viewBox="0 0 24 25" fill="none" xmlns="http://www.w3.org/2000/svg">
<path d="M15.849 1.72714C13.4672 0.424283 10.5328 0.424284 8.151 1.72714L3.84901 4.08039C1.46723 5.38325 3.38945e-06 7.79103 3.23207e-06 10.3967L2.94782e-06 15.1032C2.79045e-06 17.709 1.46724 20.1167 3.84901 21.4196L8.151 23.7729C10.5328 25.0757 13.4672 25.0757 15.849 23.7729L20.151 21.4196C22.5328 20.1167 24 17.709 24 15.1032L24 10.3968C24 7.79103 22.5328 5.38325 20.151 4.08039L15.849 1.72714Z" fill="#FECD34"/>
<path fill-rule="evenodd" clip-rule="evenodd" d="M11.8182 15.2955L10.7273 18.2046H11.8182L12.4319 16.5683H15.0228L15.6364 18.2046H16.7273L14.2728 11.6592H13.1818L12.2332 14.1888L11.0891 13.0582L11.1055 13.0418C12.0546 11.9836 12.7309 10.7672 13.1291 9.47996H14.7273V8.38633H10.9091V7.29541H9.81818V8.38633H6V9.47178H12.0927C11.7245 10.5245 11.1491 11.5227 10.3636 12.3954C9.85635 11.8309 9.43634 11.2172 9.10362 10.5681H8.01273C8.4109 11.4572 8.95637 12.2972 9.63818 13.0554L6.86454 15.7963L7.63636 16.5682L10.3636 13.8409L11.8182 15.2955ZM13.7273 13.1128L12.8409 15.4774H14.6137L13.7273 13.1128Z" fill="#422A47"/>
</svg>
